<?xml version="1.0" encoding="UTF-8" standalone="no"?>
<!-- Created with Inkscape (http://www.inkscape.org/) -->

<svg
   xmlns:dc="http://purl.org/dc/elements/1.1/"
   xmlns:cc="http://creativecommons.org/ns#"
   xmlns:rdf="http://www.w3.org/1999/02/22-rdf-syntax-ns#"
   xmlns:svg="http://www.w3.org/2000/svg"
   xmlns="http://www.w3.org/2000/svg"
   xmlns:sodipodi="http://sodipodi.sourceforge.net/DTD/sodipodi-0.dtd"
   xmlns:inkscape="http://www.inkscape.org/namespaces/inkscape"
   width="64.806747mm"
   height="12.681443mm"
   viewBox="0 0 64.806747 12.681443"
   version="1.1"
   id="svg70493"
   inkscape:version="0.92.3 (2405546, 2018-03-11)"
   sodipodi:docname="logo.svg">
  <defs
     id="defs70487" />
  <sodipodi:namedview
     id="base"
     pagecolor="#ffffff"
     bordercolor="#666666"
     borderopacity="1.0"
     inkscape:pageopacity="0.0"
     inkscape:pageshadow="2"
     inkscape:zoom="0.98994949"
     inkscape:cx="332.15104"
     inkscape:cy="-151.3125"
     inkscape:document-units="mm"
     inkscape:current-layer="layer1"
     showgrid="false"
     fit-margin-top="0"
     fit-margin-left="0"
     fit-margin-right="0"
     fit-margin-bottom="0"
     inkscape:window-width="1920"
     inkscape:window-height="1019"
     inkscape:window-x="0"
     inkscape:window-y="0"
     inkscape:window-maximized="1" />
  <metadata
     id="metadata70490">
    <rdf:RDF>
      <cc:Work
         rdf:about="">
        <dc:format>image/svg+xml</dc:format>
        <dc:type
           rdf:resource="http://purl.org/dc/dcmitype/StillImage" />
        <dc:title></dc:title>
      </cc:Work>
    </rdf:RDF>
  </metadata>
  <g
     inkscape:label="Camada 1"
     inkscape:groupmode="layer"
     id="layer1"
     transform="translate(-95.352582,-82.016421)">
    <g
       id="g10436"
       transform="matrix(0.35277777,0,0,-0.35277777,98.461523,94.290336)">
      <path
         d="M 0,0 C 0.057,-0.101 0.125,-0.191 0.199,-0.277 L 8.513,16.256 -0.045,31.08 -8.327,16.452 c -0.305,-0.538 -0.305,-1.207 0,-1.745 z"
         style="fill:#5c4a8f;fill-opacity:1;fill-rule:nonzero;stroke:none"
         id="path10438"
         inkscape:connector-curvature="0" />
    </g>
    <g
       id="g10440"
       transform="matrix(0.35277777,0,0,-0.35277777,98.446355,83.508742)">
      <path
         d="m 0,0 -8.061,-14.236 c -0.26,-0.461 -0.26,-1.033 0,-1.493 l 8.269,-14.605 8.056,16.02 z m 0.298,-31.3 -0.251,0.294 c -0.096,0.111 -0.169,0.213 -0.228,0.317 v 0 l -8.327,14.707 c -0.349,0.617 -0.349,1.382 0,1.999 l 8.504,15.019 8.852,-15.333 z"
         style="fill:#ffffff;fill-opacity:1;fill-rule:nonzero;stroke:none"
         id="path10442"
         inkscape:connector-curvature="0" />
    </g>
    <g
       id="g10444"
       transform="matrix(0.35277777,0,0,-0.35277777,101.68284,88.933229)">
      <path
         d="m 0,0 -8.057,-16.021 c 0.151,-0.041 0.307,-0.063 0.467,-0.063 0,0 10.877,0.016 15.159,0.022 0.759,0.001 1.23,0.822 0.85,1.479 z"
         style="fill:#6ba098;fill-opacity:1;fill-rule:nonzero;stroke:none"
         id="path10446"
         inkscape:connector-curvature="0" />
    </g>
    <g
       id="g10448"
       transform="matrix(0.35277777,0,0,-0.35277777,98.977075,94.515831)">
      <path
         d="M 0,0 C 0.026,-0.001 0.053,-0.002 0.08,-0.002 L 15.239,0.02 c 0.262,0 0.497,0.135 0.629,0.363 0.131,0.228 0.131,0.501 -10e-4,0.73 L 7.686,15.284 Z m 0.08,-0.516 c -0.181,0 -0.361,0.024 -0.535,0.072 l -0.302,0.083 8.411,16.727 8.658,-14.995 c 0.225,-0.39 0.225,-0.855 10e-4,-1.245 -0.224,-0.388 -0.625,-0.62 -1.074,-0.621 z"
         style="fill:#ffffff;fill-opacity:1;fill-rule:nonzero;stroke:none"
         id="path10450"
         inkscape:connector-curvature="0" />
    </g>
    <g
       id="g10452"
       transform="matrix(0.35277777,0,0,-0.35277777,100.99038,86.701663)">
      <path
         d="M 0,0 6.513,12.951 C 2.717,12.878 -2.954,13.01 -5.711,12.959 -6.438,12.946 -6.88,12.158 -6.517,11.528 Z"
         style="fill:#5c4a8f;fill-opacity:1;fill-rule:nonzero;stroke:none"
         id="path10454"
         inkscape:connector-curvature="0" />
    </g>
    <g
       id="g10456"
       transform="matrix(0.35277777,0,0,-0.35277777,103.13943,82.226324)">
      <path
         d="m 0,0 c -3.783,-0.073 -9.142,0.065 -11.799,0.016 -0.248,-0.005 -0.469,-0.136 -0.591,-0.351 -0.123,-0.218 -0.121,-0.477 0.004,-0.694 l 6.279,-11.116 z m -6.076,-13.228 -6.755,11.942 c -0.217,0.376 -0.22,0.826 -0.006,1.203 0.212,0.376 0.597,0.605 1.029,0.613 C -9.05,0.581 -3.379,0.449 0.416,0.522 L 0.842,0.53 Z"
         style="fill:#ffffff;fill-opacity:1;fill-rule:nonzero;stroke:none"
         id="path10458"
         inkscape:connector-curvature="0" />
    </g>
    <g
       id="g10460"
       transform="matrix(0.35277777,0,0,-0.35277777,108.00737,87.446341)">
      <path
         d="m 0,0 -8.061,14.237 c -0.314,0.554 -0.904,0.898 -1.541,0.898 0,0 -1.04,-0.02 -2.608,-0.051 L -19.272,1.04 -8.575,-17.488 c 0.207,0.147 0.385,0.337 0.514,0.565 L 0,-2.686 C 0.472,-1.853 0.472,-0.833 0,0"
         style="fill:#6ba098;fill-opacity:1;fill-rule:nonzero;stroke:none"
         id="path10462"
         inkscape:connector-curvature="0" />
    </g>
    <g
       id="g10464"
       transform="matrix(0.35277777,0,0,-0.35277777,101.31147,87.076313)">
      <path
         d="m 0,0 10.474,-18.142 c 0.087,0.09 0.161,0.19 0.222,0.297 l 8.06,14.237 c 0.426,0.75 0.426,1.682 0,2.433 l -8.06,14.236 c -0.269,0.474 -0.774,0.768 -1.318,0.768 L 6.93,13.782 Z M 10.324,-18.911 -0.584,-0.017 6.61,14.29 9.374,14.343 c 0.733,0 1.41,-0.394 1.769,-1.029 l 8.061,-14.236 c 0.513,-0.907 0.513,-2.033 0,-2.939 l -8.061,-14.237 c -0.144,-0.255 -0.342,-0.473 -0.588,-0.649 z"
         style="fill:#ffffff;fill-opacity:1;fill-rule:nonzero;stroke:none"
         id="path10466"
         inkscape:connector-curvature="0" />
    </g>
    <g
       id="g10468"
       transform="matrix(0.35277777,0,0,-0.35277777,112.69233,88.158423)">
      <path
         d="M 0,0 -6.58,6.401 -7.384,5.576 0.007,-1.614 7.356,5.653 6.546,6.472 Z"
         style="fill:#222221;fill-opacity:1;fill-rule:nonzero;stroke:none"
         id="path10470"
         inkscape:connector-curvature="0" />
    </g>
    <g
       id="g10472"
       transform="matrix(0.35277777,0,0,-0.35277777,125.58752,88.248699)">
      <path
         d="m 0,0 -10.61,6.466 c -0.288,0.18 -0.65,0.19 -0.945,0.025 -0.296,-0.163 -0.48,-0.475 -0.48,-0.814 v -6.679 h 1.152 v 6.284 l 10.611,-6.466 c 0.147,-0.092 0.318,-0.141 0.494,-0.141 0.157,0 0.313,0.04 0.45,0.116 0.297,0.164 0.48,0.476 0.48,0.814 V 6.241 H 0 Z"
         style="fill:#222221;fill-opacity:1;fill-rule:nonzero;stroke:none"
         id="path10474"
         inkscape:connector-curvature="0" />
    </g>
    <g
       id="g10476"
       transform="matrix(0.35277777,0,0,-0.35277777,131.44229,85.945307)">
      <path
         d="m 0,0 h -12.232 c -0.514,0 -0.931,-0.418 -0.931,-0.931 V -7.39 h 1.152 v 6.237 h 11.789 v -5.372 h -11.47 V -7.678 H 0 c 0.513,0 0.931,0.418 0.931,0.931 v 5.816 C 0.931,-0.418 0.513,0 0,0"
         style="fill:#222221;fill-opacity:1;fill-rule:nonzero;stroke:none"
         id="path10478"
         inkscape:connector-curvature="0" />
    </g>
    <g
       id="g10480"
       transform="matrix(0.35277777,0,0,-0.35277777,116.04993,88.653829)">
      <path
         d="M 0,0 H 12.718 V 1.152 H 1.153 V 6.525 H 12.718 V 7.678 H 0 Z"
         style="fill:#222221;fill-opacity:1;fill-rule:nonzero;stroke:none"
         id="path10482"
         inkscape:connector-curvature="0" />
    </g>
    <path
       d="m 119.32843,86.846901 h -2.6998 v 0.4064 h 2.6998 z"
       style="fill:#222221;fill-opacity:1;fill-rule:nonzero;stroke:none;stroke-width:0.35277775"
       id="path10484"
       inkscape:connector-curvature="0" />
    <g
       id="g10486"
       transform="matrix(0.35277777,0,0,-0.35277777,132.57538,88.653829)">
      <path
         d="M 0,0 H 12.718 V 1.152 H 1.152 V 6.525 H 12.718 V 7.678 H 0 Z"
         style="fill:#222221;fill-opacity:1;fill-rule:nonzero;stroke:none"
         id="path10488"
         inkscape:connector-curvature="0" />
    </g>
    <path
       d="m 135.8536,86.846901 h -2.6998 v 0.4064 h 2.6998 z"
       style="fill:#222221;fill-opacity:1;fill-rule:nonzero;stroke:none;stroke-width:0.35277775"
       id="path10490"
       inkscape:connector-curvature="0" />
    <g
       id="g10492"
       transform="matrix(0.35277777,0,0,-0.35277777,142.52273,85.945307)">
      <path
         d="m 0,0 h -12.268 c -0.513,0 -0.931,-0.418 -0.931,-0.931 v -6.568 h 1.153 v 6.346 h 11.824 l -0.007,-2.11 h -11.698 v -1.153 h 11.243 c -0.027,-0.245 0.051,-0.5 0.233,-0.69 l 0.23,-0.239 v -2.154 h 1.152 v 2.255 c 0,0.234 -0.089,0.456 -0.256,0.63 l -0.115,0.115 0.168,0.206 c 0.131,0.161 0.203,0.363 0.203,0.57 v 2.792 C 0.931,-0.418 0.514,0 0,0"
         style="fill:#222221;fill-opacity:1;fill-rule:nonzero;stroke:none"
         id="path10494"
         inkscape:connector-curvature="0" />
    </g>
    <g
       id="g10496"
       transform="matrix(0.35277777,0,0,-0.35277777,143.65599,86.273779)">
      <path
         d="m 0,0 v -5.83 c 0,-0.513 0.418,-0.931 0.931,-0.931 h 11.833 c 0.513,0 0.931,0.418 0.931,0.931 v 4.097 H 7.14 v -1.153 h 5.402 V -5.608 H 1.153 v 5.386 l 12.554,0.001 V 0.931 H 0.931 C 0.418,0.931 0,0.513 0,0"
         style="fill:#222221;fill-opacity:1;fill-rule:nonzero;stroke:none"
         id="path10498"
         inkscape:connector-curvature="0" />
    </g>
    <g
       id="g10500"
       transform="matrix(0.35277777,0,0,-0.35277777,159.83089,86.837412)">
      <path
         d="M 0,0 H -11.929 V 1.389 H 0.643 v 1.153 h -12.794 c -0.513,0 -0.931,-0.417 -0.931,-0.931 v -1.833 c 0,-0.513 0.418,-0.93 0.931,-0.93 h 11.929 v -2.871 h -12.86 V -5.176 H 0 c 0.513,0 0.931,0.418 0.931,0.931 v 3.314 C 0.931,-0.417 0.513,0 0,0"
         style="fill:#222221;fill-opacity:1;fill-rule:nonzero;stroke:none"
         id="path10502"
         inkscape:connector-curvature="0" />
    </g>
    <g
       id="g10504"
       transform="matrix(0.35277777,0,0,-0.35277777,150.84246,87.432019)">
      <path
         d="M 0,0 2.853,2.829 5.751,0 Z m -4.504,-2.844 0.812,-0.818 3.181,3.155 v -0.646 h 7.444 l 2.499,-2.438 0.805,0.824 -7.391,7.213 z"
         style="fill:#222221;fill-opacity:1;fill-rule:nonzero;stroke:none"
         id="path10506"
         inkscape:connector-curvature="0" />
    </g>
    <g
       id="g10508"
       transform="matrix(0.35277777,0,0,-0.35277777,153.33191,84.95379)">
      <path
         d="m 0,0 -0.815,0.814 -2.831,-2.831 0.814,-0.815 z"
         style="fill:#222221;fill-opacity:1;fill-rule:nonzero;stroke:none"
         id="path10510"
         inkscape:connector-curvature="0" />
    </g>
    <g
       id="g10512"
       transform="matrix(0.35277777,0,0,-0.35277777,112.40708,91.30192)">
      <path
         d="m 0,0 c -0.454,0.176 -0.534,0.293 -0.534,0.474 0,0.151 0.117,0.327 0.45,0.327 0.237,0 0.418,-0.071 0.529,-0.132 L 0.595,0.587 0.801,1.194 0.697,1.253 C 0.583,1.317 0.332,1.426 -0.07,1.426 c -0.675,0 -1.163,-0.42 -1.163,-0.999 0,-0.471 0.303,-0.807 0.924,-1.028 0.421,-0.161 0.501,-0.297 0.501,-0.491 0,-0.246 -0.192,-0.393 -0.515,-0.393 -0.221,0 -0.466,0.068 -0.654,0.184 l -0.159,0.098 -0.187,-0.623 0.089,-0.059 c 0.198,-0.133 0.561,-0.225 0.883,-0.225 0.861,0 1.247,0.527 1.247,1.05 C 0.896,-0.43 0.443,-0.171 0,0"
         style="fill:#222221;fill-opacity:1;fill-rule:nonzero;stroke:none"
         id="path10514"
         inkscape:connector-curvature="0" />
    </g>
    <path
       d="m 113.54394,92.029912 h 0.24483 v -1.21285 h -0.24483 z"
       style="fill:#222221;fill-opacity:1;fill-rule:nonzero;stroke:none;stroke-width:0.35277775"
       id="path10516"
       inkscape:connector-curvature="0" />
    <g
       id="g10518"
       transform="matrix(0.35277777,0,0,-0.35277777,115.06603,91.30192)">
      <path
         d="m 0,0 c -0.454,0.176 -0.534,0.293 -0.534,0.474 0,0.151 0.117,0.327 0.449,0.327 0.237,0 0.419,-0.071 0.529,-0.132 L 0.595,0.587 0.8,1.194 0.697,1.253 c -0.114,0.064 -0.365,0.173 -0.768,0.173 -0.674,0 -1.163,-0.42 -1.163,-0.999 0,-0.471 0.304,-0.807 0.925,-1.028 0.421,-0.161 0.501,-0.297 0.501,-0.491 0,-0.246 -0.192,-0.393 -0.515,-0.393 -0.222,0 -0.466,0.068 -0.654,0.184 l -0.159,0.098 -0.188,-0.623 0.089,-0.059 c 0.199,-0.133 0.562,-0.225 0.884,-0.225 0.861,0 1.247,0.527 1.247,1.05 C 0.896,-0.43 0.443,-0.171 0,0"
         style="fill:#222221;fill-opacity:1;fill-rule:nonzero;stroke:none"
         id="path10520"
         inkscape:connector-curvature="0" />
    </g>
    <g
       id="g10522"
       transform="matrix(0.35277777,0,0,-0.35277777,116.07561,91.040582)">
      <path
         d="m 0,0 h 0.958 v -2.804 h 0.7 V 0 H 2.62 V 0.634 H 0 Z"
         style="fill:#222221;fill-opacity:1;fill-rule:nonzero;stroke:none"
         id="path10524"
         inkscape:connector-curvature="0" />
    </g>
    <g
       id="g10526"
       transform="matrix(0.35277777,0,0,-0.35277777,117.99314,91.508789)">
      <path
         d="M 0,0 H 1.225 V 0.624 H 0 v 0.708 h 1.295 v 0.629 h -1.99 v -3.438 h 2.06 v 0.629 H 0 Z"
         style="fill:#222221;fill-opacity:1;fill-rule:nonzero;stroke:none"
         id="path10528"
         inkscape:connector-curvature="0" />
    </g>
    <g
       id="g10530"
       transform="matrix(0.35277777,0,0,-0.35277777,120.15305,90.816992)">
      <path
         d="m 0,0 -0.596,-1.62 c -0.08,-0.226 -0.146,-0.422 -0.2,-0.597 -0.053,0.177 -0.116,0.372 -0.192,0.597 L -1.559,0 h -0.755 l -0.24,-3.438 h 0.678 l 0.092,1.486 c 0.01,0.17 0.02,0.345 0.028,0.516 0.038,-0.12 0.08,-0.248 0.127,-0.385 l 0.542,-1.598 h 0.513 l 0.591,1.623 c 0.053,0.147 0.104,0.288 0.15,0.425 0.009,-0.189 0.019,-0.376 0.028,-0.547 l 0.088,-1.52 H 0.969 L 0.755,0 Z"
         style="fill:#222221;fill-opacity:1;fill-rule:nonzero;stroke:none"
         id="path10532"
         inkscape:connector-curvature="0" />
    </g>
    <g
       id="g10534"
       transform="matrix(0.35277777,0,0,-0.35277777,121.84441,91.466597)">
      <path
         d="m 0,0 h -0.546 l 0.245,0.724 c 0.009,0.028 0.018,0.058 0.027,0.087 0.009,-0.032 0.02,-0.062 0.031,-0.095 z M -0.612,1.841 -1.78,-1.597 h 0.726 l 0.327,0.991 H 0.182 L 0.519,-1.597 H 1.258 L 0.085,1.841 Z"
         style="fill:#222221;fill-opacity:1;fill-rule:nonzero;stroke:none"
         id="path10536"
         inkscape:connector-curvature="0" />
    </g>
    <g
       id="g10538"
       transform="matrix(0.35277777,0,0,-0.35277777,124.67182,91.190972)">
      <path
         d="m 0,0 c 0,-0.547 -0.568,-0.549 -0.838,-0.52 v 0.982 c 0.06,0.006 0.14,0.011 0.239,0.011 C -0.201,0.473 0,0.314 0,0 m -0.608,1.083 c -0.288,0 -0.55,-0.02 -0.804,-0.062 l -0.121,-0.02 v -3.379 h 0.695 v 1.239 c 0.517,-0.038 0.983,0.1 1.25,0.384 0.188,0.194 0.283,0.454 0.283,0.774 0,0.314 -0.116,0.586 -0.323,0.766 -0.221,0.198 -0.55,0.298 -0.98,0.298"
         style="fill:#222221;fill-opacity:1;fill-rule:nonzero;stroke:none"
         id="path10540"
         inkscape:connector-curvature="0" />
    </g>
    <g
       id="g10542"
       transform="matrix(0.35277777,0,0,-0.35277777,126.11962,91.466597)">
      <path
         d="m 0,0 h -0.546 l 0.245,0.724 c 0.009,0.028 0.018,0.058 0.027,0.087 0.009,-0.032 0.02,-0.062 0.031,-0.095 z M -0.612,1.841 -1.78,-1.597 h 0.726 l 0.327,0.991 H 0.182 L 0.519,-1.597 H 1.258 L 0.085,1.841 Z"
         style="fill:#222221;fill-opacity:1;fill-rule:nonzero;stroke:none"
         id="path10544"
         inkscape:connector-curvature="0" />
    </g>
    <g
       id="g10546"
       transform="matrix(0.35277777,0,0,-0.35277777,127.57603,91.025625)">
      <path
         d="m 0,0 c 0.062,0.007 0.148,0.014 0.256,0.014 0.582,-0.007 0.582,-0.337 0.582,-0.445 0,-0.28 -0.217,-0.455 -0.566,-0.455 H 0 Z m 1.398,-1.806 c -0.06,0.265 -0.165,0.465 -0.312,0.597 0.284,0.179 0.447,0.473 0.447,0.824 0,0.287 -0.105,0.538 -0.295,0.705 C 1.013,0.524 0.702,0.615 0.23,0.615 -0.068,0.615 -0.371,0.589 -0.58,0.546 L -0.695,0.523 v -3.37 H 0 v 1.365 h 0.234 c 0.265,-0.01 0.407,-0.087 0.496,-0.5 0.107,-0.475 0.17,-0.697 0.226,-0.793 l 0.042,-0.072 h 0.745 l -0.115,0.213 c -0.063,0.115 -0.155,0.511 -0.23,0.828"
         style="fill:#222221;fill-opacity:1;fill-rule:nonzero;stroke:none"
         id="path10548"
         inkscape:connector-curvature="0" />
    </g>
    <g
       id="g10550"
       transform="matrix(0.35277777,0,0,-0.35277777,129.47616,91.466597)">
      <path
         d="m 0,0 h -0.546 l 0.244,0.724 c 0.01,0.028 0.018,0.058 0.028,0.087 0.009,-0.032 0.02,-0.062 0.03,-0.095 z M -0.612,1.841 -1.78,-1.597 h 0.725 l 0.327,0.991 h 0.91 L 0.519,-1.597 H 1.258 L 0.085,1.841 Z"
         style="fill:#222221;fill-opacity:1;fill-rule:nonzero;stroke:none"
         id="path10552"
         inkscape:connector-curvature="0" />
    </g>
    <g
       id="g10554"
       transform="matrix(0.35277777,0,0,-0.35277777,132.0078,91.025625)">
      <path
         d="m 0,0 c 0.062,0.007 0.148,0.014 0.257,0.014 0.581,-0.007 0.581,-0.337 0.581,-0.445 0,-0.28 -0.216,-0.455 -0.566,-0.455 H 0 Z m 1.398,-1.806 c -0.06,0.265 -0.165,0.465 -0.312,0.597 0.284,0.179 0.447,0.473 0.447,0.824 0,0.287 -0.105,0.538 -0.295,0.705 C 1.013,0.524 0.702,0.615 0.23,0.615 -0.068,0.615 -0.371,0.589 -0.58,0.546 L -0.694,0.523 v -3.37 H 0 v 1.365 h 0.234 c 0.265,-0.01 0.407,-0.087 0.496,-0.5 0.107,-0.475 0.17,-0.697 0.226,-0.793 l 0.042,-0.072 h 0.745 l -0.115,0.213 c -0.062,0.115 -0.155,0.511 -0.23,0.828"
         style="fill:#222221;fill-opacity:1;fill-rule:nonzero;stroke:none"
         id="path10556"
         inkscape:connector-curvature="0" />
    </g>
    <g
       id="g10558"
       transform="matrix(0.35277777,0,0,-0.35277777,133.62094,91.508789)">
      <path
         d="M 0,0 H 1.225 V 0.624 H 0 v 0.708 h 1.294 v 0.629 h -1.989 v -3.438 h 2.06 v 0.629 H 0 Z"
         style="fill:#222221;fill-opacity:1;fill-rule:nonzero;stroke:none"
         id="path10560"
         inkscape:connector-curvature="0" />
    </g>
    <g
       id="g10562"
       transform="matrix(0.35277777,0,0,-0.35277777,135.389,91.400451)">
      <path
         d="m 0,0 c -0.073,-0.214 -0.152,-0.448 -0.223,-0.682 -0.059,0.208 -0.128,0.43 -0.209,0.683 l -0.523,1.653 h -0.743 l 1.122,-3.438 h 0.655 l 1.23,3.438 H 0.566 Z"
         style="fill:#222221;fill-opacity:1;fill-rule:nonzero;stroke:none"
         id="path10564"
         inkscape:connector-curvature="0" />
    </g>
    <g
       id="g10566"
       transform="matrix(0.35277777,0,0,-0.35277777,136.81905,91.508789)">
      <path
         d="M 0,0 H 1.225 V 0.624 H 0 v 0.708 h 1.295 v 0.629 h -1.989 v -3.438 h 2.059 v 0.629 H 0 Z"
         style="fill:#222221;fill-opacity:1;fill-rule:nonzero;stroke:none"
         id="path10568"
         inkscape:connector-curvature="0" />
    </g>
    <g
       id="g10570"
       transform="matrix(0.35277777,0,0,-0.35277777,138.8103,91.332753)">
      <path
         d="m 0,0 c 0,-0.228 0.002,-0.44 0.008,-0.65 -0.083,0.147 -0.173,0.296 -0.27,0.451 l -1.052,1.661 h -0.668 v -3.438 h 0.671 v 1.49 c 0,0.262 -0.001,0.486 -0.007,0.695 0.09,-0.159 0.193,-0.331 0.312,-0.52 L 0.036,-1.976 H 0.671 V 1.462 H 0 Z"
         style="fill:#222221;fill-opacity:1;fill-rule:nonzero;stroke:none"
         id="path10572"
         inkscape:connector-curvature="0" />
    </g>
    <g
       id="g10574"
       transform="matrix(0.35277777,0,0,-0.35277777,140.68391,91.401968)">
      <path
         d="m 0,0 c 0,-0.78 -0.414,-1.192 -1.197,-1.192 -0.078,0 -0.178,10e-4 -0.267,0.007 v 2.237 c 0.082,0.01 0.191,0.019 0.332,0.019 0.382,0 0.673,-0.097 0.864,-0.29 C -0.088,0.6 0.002,0.337 0,0 m -1.15,1.682 c -0.293,0 -0.592,-0.023 -0.887,-0.068 L -2.159,1.596 v -3.351 l 0.127,-0.015 c 0.225,-0.025 0.478,-0.038 0.755,-0.038 0.654,0 1.171,0.171 1.494,0.495 0.325,0.319 0.496,0.778 0.496,1.327 0,0.523 -0.165,0.939 -0.489,1.236 -0.312,0.291 -0.762,0.432 -1.374,0.432"
         style="fill:#222221;fill-opacity:1;fill-rule:nonzero;stroke:none"
         id="path10576"
         inkscape:connector-curvature="0" />
    </g>
    <g
       id="g10578"
       transform="matrix(0.35277777,0,0,-0.35277777,141.99151,91.508789)">
      <path
         d="M 0,0 H 1.225 V 0.624 H 0 v 0.708 h 1.294 v 0.629 h -1.989 v -3.438 h 2.06 v 0.629 H 0 Z"
         style="fill:#222221;fill-opacity:1;fill-rule:nonzero;stroke:none"
         id="path10580"
         inkscape:connector-curvature="0" />
    </g>
    <g
       id="g10582"
       transform="matrix(0.35277777,0,0,-0.35277777,144.04532,91.401968)">
      <path
         d="m 0,0 c 0,-0.78 -0.414,-1.192 -1.197,-1.192 -0.078,0 -0.178,10e-4 -0.267,0.007 v 2.237 c 0.082,0.01 0.191,0.019 0.332,0.019 0.382,0 0.673,-0.097 0.864,-0.29 C -0.088,0.6 0.002,0.337 0,0 m -1.15,1.682 c -0.293,0 -0.591,-0.023 -0.887,-0.068 L -2.159,1.596 v -3.351 l 0.128,-0.015 c 0.224,-0.025 0.478,-0.038 0.755,-0.038 0.653,0 1.17,0.171 1.493,0.495 0.325,0.319 0.496,0.778 0.496,1.327 0,0.523 -0.165,0.939 -0.489,1.236 -0.312,0.291 -0.761,0.432 -1.374,0.432"
         style="fill:#222221;fill-opacity:1;fill-rule:nonzero;stroke:none"
         id="path10584"
         inkscape:connector-curvature="0" />
    </g>
    <g
       id="g10586"
       transform="matrix(0.35277777,0,0,-0.35277777,145.90583,91.418513)">
      <path
         d="m 0,0 c 0,-0.58 -0.268,-1.164 -0.865,-1.164 -0.592,0 -0.861,0.586 -0.861,1.131 0,0.582 0.268,1.17 0.865,1.17 C -0.269,1.137 0,0.547 0,0 m -0.842,1.756 c -0.946,0 -1.607,-0.739 -1.607,-1.798 0,-1.026 0.642,-1.743 1.56,-1.743 0.8,0 1.607,0.558 1.607,1.804 0,1.023 -0.641,1.737 -1.56,1.737"
         style="fill:#222221;fill-opacity:1;fill-rule:nonzero;stroke:none"
         id="path10588"
         inkscape:connector-curvature="0" />
    </g>
    <g
       id="g10590"
       transform="matrix(0.35277777,0,0,-0.35277777,147.21513,91.33808)">
      <path
         d="M 0,0 V 0.886 C 0.062,0.893 0.148,0.899 0.256,0.899 0.838,0.893 0.838,0.562 0.838,0.455 0.838,0.174 0.621,0 0.272,0 Z M 1.398,-0.92 C 1.337,-0.655 1.233,-0.455 1.086,-0.324 1.37,-0.144 1.533,0.15 1.533,0.501 1.533,0.788 1.428,1.039 1.238,1.206 1.013,1.41 0.702,1.5 0.229,1.5 -0.068,1.5 -0.371,1.475 -0.58,1.432 L -0.695,1.409 v -3.37 H 0 v 1.365 h 0.233 c 0.266,-0.01 0.408,-0.088 0.496,-0.5 0.108,-0.475 0.171,-0.697 0.227,-0.793 l 0.041,-0.072 h 0.745 l -0.114,0.212 c -0.063,0.116 -0.155,0.512 -0.23,0.829"
         style="fill:#222221;fill-opacity:1;fill-rule:nonzero;stroke:none"
         id="path10592"
         inkscape:connector-curvature="0" />
    </g>
    <g
       id="g10594"
       transform="matrix(0.35277777,0,0,-0.35277777,150.42011,91.401968)">
      <path
         d="m 0,0 c 0,-0.78 -0.414,-1.192 -1.197,-1.192 -0.078,0 -0.178,10e-4 -0.267,0.007 v 2.237 c 0.082,0.01 0.191,0.019 0.332,0.019 0.382,0 0.673,-0.097 0.864,-0.29 C -0.088,0.6 0.002,0.337 0,0 m -1.15,1.682 c -0.293,0 -0.591,-0.023 -0.887,-0.068 L -2.159,1.596 v -3.351 l 0.128,-0.015 c 0.224,-0.025 0.478,-0.038 0.755,-0.038 0.653,0 1.17,0.171 1.493,0.495 0.325,0.319 0.496,0.778 0.496,1.327 0,0.523 -0.165,0.939 -0.489,1.236 -0.312,0.291 -0.761,0.432 -1.374,0.432"
         style="fill:#222221;fill-opacity:1;fill-rule:nonzero;stroke:none"
         id="path10596"
         inkscape:connector-curvature="0" />
    </g>
    <g
       id="g10598"
       transform="matrix(0.35277777,0,0,-0.35277777,151.72769,91.508789)">
      <path
         d="M 0,0 H 1.225 V 0.624 H 0 v 0.708 h 1.294 v 0.629 h -1.989 v -3.438 h 2.06 v 0.629 H 0 Z"
         style="fill:#222221;fill-opacity:1;fill-rule:nonzero;stroke:none"
         id="path10600"
         inkscape:connector-curvature="0" />
    </g>
    <g
       id="g10602"
       transform="matrix(0.35277777,0,0,-0.35277777,154.57506,91.561671)">
      <path
         d="M 0,0 H 0.64 V -0.694 C 0.555,-0.717 0.422,-0.735 0.242,-0.735 c -0.671,0 -1.071,0.421 -1.071,1.127 0,0.703 0.419,1.122 1.122,1.122 0.321,0 0.51,-0.065 0.638,-0.123 L 1.082,1.325 1.261,1.931 1.151,1.984 c -0.159,0.078 -0.466,0.16 -0.848,0.16 -1.101,0 -1.845,-0.712 -1.85,-1.771 0,-0.515 0.176,-0.98 0.484,-1.277 0.321,-0.307 0.739,-0.456 1.277,-0.456 0.422,0 0.785,0.099 1.016,0.181 l 0.096,0.034 v 1.76 L 0,0.615 Z"
         style="fill:#222221;fill-opacity:1;fill-rule:nonzero;stroke:none"
         id="path10604"
         inkscape:connector-curvature="0" />
    </g>
    <g
       id="g10606"
       transform="matrix(0.35277777,0,0,-0.35277777,156.41025,91.466597)">
      <path
         d="m 0,0 h -0.546 l 0.244,0.724 c 0.01,0.028 0.019,0.058 0.028,0.087 0.009,-0.032 0.02,-0.062 0.03,-0.095 z M 0.019,1.841 0.795,2.557 H -0.139 L -0.803,1.722 h 0.15 l -1.128,-3.319 h 0.726 l 0.327,0.991 h 0.91 L 0.519,-1.597 H 1.258 L 0.085,1.841 Z"
         style="fill:#222221;fill-opacity:1;fill-rule:nonzero;stroke:none"
         id="path10608"
         inkscape:connector-curvature="0" />
    </g>
    <g
       id="g10610"
       transform="matrix(0.35277777,0,0,-0.35277777,158.02378,91.30192)">
      <path
         d="m 0,0 c -0.454,0.176 -0.534,0.293 -0.534,0.474 0,0.151 0.117,0.327 0.449,0.327 0.237,0 0.419,-0.071 0.529,-0.132 L 0.595,0.587 0.8,1.194 0.697,1.253 c -0.114,0.064 -0.365,0.173 -0.768,0.173 -0.674,0 -1.163,-0.42 -1.163,-0.999 0,-0.471 0.304,-0.807 0.925,-1.028 0.421,-0.161 0.501,-0.297 0.501,-0.491 0,-0.246 -0.192,-0.393 -0.515,-0.393 -0.222,0 -0.466,0.068 -0.654,0.184 l -0.159,0.098 -0.188,-0.623 0.089,-0.059 c 0.199,-0.133 0.562,-0.225 0.884,-0.225 0.861,0 1.247,0.527 1.247,1.05 C 0.896,-0.43 0.443,-0.171 0,0"
         style="fill:#222221;fill-opacity:1;fill-rule:nonzero;stroke:none"
         id="path10612"
         inkscape:connector-curvature="0" />
    </g>
  </g>
</svg>
